<svg width="26" height="26" viewBox="0 0 26 26" fill="none" xmlns="http://www.w3.org/2000/svg">
<path d="M8.18591 15.4074C8.18591 14.0778 7.10808 13 5.7785 13C4.44893 13 3.37109 14.0778 3.37109 15.4074L3.37109 17.8148C3.37109 19.1444 4.44893 20.2222 5.7785 20.2222C7.10808 20.2222 8.18591 19.1444 8.18591 17.8148L8.18591 15.4074Z" stroke="white" stroke-width="1.6" stroke-linecap="round" stroke-linejoin="round"/>
<path d="M22.6312 15.4074C22.6312 14.0778 21.5534 13 20.2238 13C18.8942 13 17.8164 14.0778 17.8164 15.4074L17.8164 17.8148C17.8164 19.1444 18.8942 20.2222 20.2238 20.2222C21.5534 20.2222 22.6312 19.1444 22.6312 17.8148L22.6312 15.4074Z" stroke="white" stroke-width="1.6" stroke-linecap="round" stroke-linejoin="round"/>
<path d="M3.37109 15.4075L3.37109 11.7964C3.37109 9.24244 4.38564 6.79311 6.19155 4.9872C7.99745 3.1813 10.4468 2.16675 13.0007 2.16675C15.5547 2.16675 18.004 3.1813 19.8099 4.9872C21.6158 6.79311 22.6304 9.24244 22.6304 11.7964L22.6304 15.4075" stroke="white" stroke-width="1.6" stroke-linecap="round" stroke-linejoin="round"/>
<path d="M20.2222 20.2224C20.2222 21.1801 19.4613 22.0986 18.1069 22.7759C16.7525 23.4531 14.9155 23.8335 13 23.8335" stroke="white" stroke-width="1.6" stroke-linecap="round" stroke-linejoin="round"/>
</svg>
